<?xml version="1.0" encoding="utf-8"?>
<svg id="Layer_1" data-name="Layer 1" xmlns="http://www.w3.org/2000/svg" viewBox="0 0 339.43 295.27">
  <title>tether-usdt-logo</title>
  <path d="M62.15,1.45l-61.89,130a2.52,2.52,0,0,0,.54,2.94L167.95,294.56a2.55,2.55,0,0,0,3.53,0L338.63,134.4a2.52,2.52,0,0,0,.54-2.94l-61.89-130A2.5,2.5,0,0,0,275,0H64.45a2.5,2.5,0,0,0-2.3,1.45h0Z" style="fill:#50af95;fill-rule:evenodd"/>
  <path d="M191.19,144.8v0c-1.2.09-7.4,0.46-21.23,0.46-11,0-18.81-.33-21.55-0.46v0c-42.51-1.87-74.24-9.27-74.24-18.13s31.73-16.25,74.24-18.15v28.91c2.78,0.2,10.74.67,21.74,0.67,13.2,0,19.81-.55,21-0.66v-28.9c42.42,1.89,74.08,9.29,74.08,18.13s-31.65,16.24-74.08,18.12h0Zm0-39.25V79.68h59.2V40.23H89.21V79.68H148.4v25.86c-48.11,2.21-84.29,11.74-84.29,23.16s36.18,20.94,84.29,23.16v82.9h42.78V151.83c48-2.21,84.12-11.73,84.12-23.14s-36.09-20.93-84.12-23.15h0Zm0,0h0Z" style="fill:#fff;fill-rule:evenodd"/>
  <g fill="none" transform="matrix(3.878579, 0, 0, 3.727074, 215.032245, 175.682574)" style="">
    <circle fill="#EF0027" cx="16" cy="16" r="18.048" transform="matrix(1, 0, 0, 1.000117, -2.021063, -2.003086)"/>
    <g transform="matrix(0.999883, 0, 0, 1, -2.788409, -2.101272)">
      <path d="M 24.597 8.726 L 5.149 5.183 L 15.384 30.672 L 29.645 13.475 L 24.597 8.726 Z M 24.285 10.285 L 27.26 13.085 L 19.123 14.542 L 24.285 10.285 Z M 17.355 14.251 L 8.779 7.211 L 22.797 9.764 L 17.355 14.251 Z M 16.745 15.496 L 15.346 26.939 L 7.806 8.157 L 16.745 15.495 L 16.745 15.496 Z M 18.038 16.103 L 27.05 14.489 L 16.714 26.95 L 18.038 16.103 Z" fill="#FFF"/>
    </g>
  </g>
</svg>